<svg xmlns="http://www.w3.org/2000/svg" viewBox="0 0 100 100" width="100" height="100">
  
  <path d="M43,42 C43,52 27,59 27,74 C27,89 37,96 50,96 C63,96 73,89 73,74 C73,59 57,52 57,42 Z" fill="#B65C39"></path>
  
  <g fill="#5A4331">
    <path d="M49,42 C49,34 49,25 50.6,17 L53.4,17 C51.8,25 51,34 51,42 Z"></path>
    <path d="M49.5,34 C43,33 39.5,25.5 44,22 C48.5,25 51,29 49.5,34 Z"></path>
    <path d="M51.5,25 C58,24.5 61.5,17.5 57,14.5 C52.5,17.5 50,22 51.5,25 Z"></path>
    <path d="M52.5,16.5 C48.5,12.5 49,5 53,3.5 C57,5 57.5,12.5 52.5,16.5 Z"></path>
  </g>
</svg>